<?xml version="1.0" encoding="UTF-8"?>
<svg width="90px" height="144px" viewBox="0 0 90 144" version="1.1" xmlns="http://www.w3.org/2000/svg" xmlns:xlink="http://www.w3.org/1999/xlink">
    <!-- Generator: Sketch 47.1 (45422) - http://www.bohemiancoding.com/sketch -->
    <title>logo</title>
    <desc>Created with Sketch.</desc>
    <defs></defs>
    <g id="Page-1" stroke="none" stroke-width="1" fill="none" fill-rule="evenodd">
        <g id="logo" fill-rule="nonzero">
            <g id="Group">
                <polyline id="Shape" fill="#FFFFFF" points="12 0 0 0 0 143.423 9.674 143.423 11.9 143.423"></polyline>
                <path d="M11.9,65.621 L11.9,10.541" id="Shape" fill="#000000"></path>
                <path d="M84.064,24.141 C82.306,19.61 79.841,15.556 76.669,11.987 C73.495,8.417 69.726,5.526 65.364,3.317 C61,1.105 56.211,0 51,0 L23.9,0 L23.9,10.541 L50.32,10.541 C53.605,10.541 56.75,11.279 59.754,12.75 C62.756,14.225 65.365,16.209 67.574,18.701 C69.785,21.195 71.541,24.114 72.844,27.455 C74.147,30.8 74.799,34.285 74.799,37.91 C74.799,41.539 74.231,44.995 73.1,48.281 C71.965,51.569 70.379,54.515 68.34,57.121 C66.299,59.728 63.834,61.796 60.945,63.326 C58.054,64.855 54.851,65.621 51.34,65.621 L23.9,65.621 L23.9,76.16 L51.59,76.16 C62.424,76.101 67.602,71.826 70.889,69.615 C74.176,67.406 76.981,64.685 79.305,61.455 C81.627,58.226 83.44,54.6 84.744,50.576 C86.047,46.555 86.699,42.33 86.699,37.91 C86.699,33.266 85.82,28.675 84.064,24.141 Z" id="Shape" fill="#FFFFFF"></path>
            </g>
            <rect id="Rectangle-path" fill="#FFFFFF" x="23.9" y="132.84" width="61.354" height="10.583"></rect>
            <polygon id="Shape" fill="#51A8D0" opacity="0.65" points="55.37 88.352 75.99 120.701 89.42 120.701 68.877 88.352"></polygon>
        </g>
    </g>
</svg>