<?xml version="1.0" encoding="UTF-8"?>
<svg width="149px" height="104px" viewBox="0 0 149 104" version="1.1" xmlns="http://www.w3.org/2000/svg" xmlns:xlink="http://www.w3.org/1999/xlink">
    <!-- Generator: Sketch 47.1 (45422) - http://www.bohemiancoding.com/sketch -->
    <title>Artboard</title>
    <desc>Created with Sketch.</desc>
    <defs></defs>
    <g id="Page-1" stroke="none" stroke-width="1" fill="none" fill-rule="evenodd">
        <g id="Artboard">
            <g id="logo">
                <g id="Group">
                    <g id="Group-2" transform="translate(0.000000, 2.000000)">
                        <g id="Rectangle-5">
                            <rect id="path-1" x="0" y="0" width="149" height="102" rx="16"></rect>
                            <rect id="Rectangle-path" stroke="#9e9e9e" stroke-width="2" x="1.5" y="1.5" width="146" height="99" rx="16"></rect>
                        </g>
                        <circle id="Oval" stroke="#9e9e9e" stroke-width="2" cx="74.5" cy="51" r="27.5"></circle>
                        <circle id="Oval-3" stroke="#9e9e9e" stroke-width="3.5" cx="74.5" cy="51" r="21.25"></circle>
                        <circle id="Oval-3-Copy" fill="#9e9e9e" fill-rule="nonzero" cx="80.5625" cy="44.9375" r="4.5625"></circle>
                    </g>
                    <path d="M121.25,0 L131.25,0 L131.25,0 C132.492641,-2.28269391e-16 133.5,1.00735931 133.5,2.25 L133.5,2.5 L119,2.5 L119,2.25 L119,2.25 C119,1.00735931 120.007359,2.28269391e-16 121.25,0 Z" id="Rectangle-2" fill="#9e9e9e" fill-rule="nonzero"></path>
                    <path d="M102.25,0 L105.25,0 L105.25,0 C106.492641,-2.28269391e-16 107.5,1.00735931 107.5,2.25 L107.5,2.5 L100,2.5 L100,2.25 L100,2.25 C100,1.00735931 101.007359,2.28269391e-16 102.25,0 Z" id="Rectangle-2-Copy" fill="#9e9e9e" fill-rule="nonzero"></path>
                    <circle id="Oval-5" fill="#9e9e9e" fill-rule="nonzero" cx="126.5" cy="13" r="2.5"></circle>
                </g>
            </g>
        </g>
    </g>
</svg>