<?xml version="1.0" encoding="UTF-8"?>
<svg width="420px" height="111px" viewBox="0 0 420 111" version="1.1" xmlns="http://www.w3.org/2000/svg" xmlns:xlink="http://www.w3.org/1999/xlink">
    <!-- Generator: Sketch 47.1 (45422) - http://www.bohemiancoding.com/sketch -->
    <title>Artboard</title>
    <desc>Created with Sketch.</desc>
    <defs></defs>
    <g id="Page-1" stroke="none" stroke-width="1" fill="none" fill-rule="evenodd">
        <g id="Artboard">
            <g id="logo_white">
                <g id="Group" transform="translate(0.000000, 4.000000)">
                    <g id="Group-2" transform="translate(0.000000, 2.000000)">
                        <g id="Rectangle-5">
                            <rect id="path-1" x="0" y="0" width="149" height="102" rx="16"></rect>
                            <rect id="Rectangle-path" stroke="#FFFFFF" stroke-width="3" x="1.5" y="1.5" width="146" height="99" rx="16"></rect>
                        </g>
                        <circle id="Oval" stroke="#FFFFFF" stroke-width="2" cx="74.5" cy="51" r="27.5"></circle>
                        <circle id="Oval-3" stroke="#FFFFFF" stroke-width="3.5" cx="74.5" cy="51" r="21.25"></circle>
                        <circle id="Oval-3-Copy" fill="#FFFFFF" fill-rule="nonzero" cx="80.5625" cy="44.9375" r="4.5625"></circle>
                    </g>
                    <path d="M121.25,0 L131.25,0 L131.25,0 C132.492641,-2.28269391e-16 133.5,1.00735931 133.5,2.25 L133.5,2.5 L119,2.5 L119,2.25 L119,2.25 C119,1.00735931 120.007359,2.28269391e-16 121.25,0 Z" id="Rectangle-2" fill="#FFFFFF" fill-rule="nonzero"></path>
                    <path d="M102.25,0 L105.25,0 L105.25,0 C106.492641,-2.28269391e-16 107.5,1.00735931 107.5,2.25 L107.5,2.5 L100,2.5 L100,2.25 L100,2.25 C100,1.00735931 101.007359,2.28269391e-16 102.25,0 Z" id="Rectangle-2-Copy" fill="#FFFFFF" fill-rule="nonzero"></path>
                    <circle id="Oval-5" fill="#FFFFFF" fill-rule="nonzero" cx="126.5" cy="13" r="2.5"></circle>
                </g>
                <g id="Group-3" transform="translate(178.000000, 0.000000)" fill-rule="nonzero" fill="#FFFFFF">
                    <path d="M0.4,70 L0.4,0 L28.9,0 C51.3,0 66.4,14.4 66.4,35 C66.4,55.6 51.3,70 28.9,70 L0.4,70 Z M7.8,63.6 L28.5,63.6 C47.1,63.6 59.1,51.8 59.1,35 C59.1,18.2 47.1,6.4 28.5,6.4 L7.8,6.4 L7.8,63.6 Z M85,70 L92.4,70 L92.4,0 L85,0 L85,70 Z M169.5,70 L161.1,51.3 L122.1,51.3 L113.7,70 L106,70 L138,0 L145.3,0 L177.3,70 L169.5,70 Z M124.8,45.3 L158.4,45.3 L141.6,7.7 L124.8,45.3 Z M193.9,63.6 L240.2,5.1 L240.2,0 L184.7,0 L184.7,6.4 L230.4,6.4 L184,64.9 L184,70 L241.4,70 L241.4,63.6 L193.9,63.6 Z" id="DIAZ"></path>
                    <path d="M19.976,110 L17.888,110 L11.876,101.576 C11.084,101.684 10.292,101.756 9.428,101.756 L2.228,101.756 L2.228,110 L0.392,110 L0.392,84.8 L9.428,84.8 C15.764,84.8 19.58,87.968 19.58,93.296 C19.58,97.292 17.42,100.064 13.676,101.18 L19.976,110 Z M2.228,100.136 L9.428,100.136 C14.828,100.136 17.708,97.616 17.708,93.296 C17.708,88.94 14.828,86.456 9.428,86.456 L2.228,86.456 L2.228,100.136 Z M29.048,108.344 L29.048,98.012 L42.476,98.012 L42.476,96.392 L29.048,96.392 L29.048,86.456 L44.06,86.456 L44.06,84.8 L27.212,84.8 L27.212,110 L44.6,110 L44.6,108.344 L29.048,108.344 Z M71.024,110 L67.784,102.908 L53.168,102.908 L49.964,110 L47.984,110 L59.576,84.8 L61.412,84.8 L73.004,110 L71.024,110 Z M53.888,101.36 L67.1,101.36 L60.476,86.816 L53.888,101.36 Z M78.4759999,110 L94.8199999,110 L94.8199999,108.344 L80.3119999,108.344 L80.3119999,84.8 L78.4759999,84.8 L78.4759999,110 Z M112.424,108.344 L112.424,98.012 L125.852,98.012 L125.852,96.392 L112.424,96.392 L112.424,86.456 L127.436,86.456 L127.436,84.8 L110.588,84.8 L110.588,110 L127.976,110 L127.976,108.344 L112.424,108.344 Z M142.196,110.18 C148.424,110.18 151.268,107.084 151.268,103.52 C151.268,94.376 135.536,98.84 135.536,91.28 C135.536,88.508 137.732,86.24 142.628,86.24 C144.896,86.24 147.452,86.924 149.54,88.364 L150.224,86.888 C148.28,85.484 145.4,84.62 142.628,84.62 C136.436,84.62 133.7,87.752 133.7,91.316 C133.7,100.604 149.432,96.068 149.432,103.628 C149.432,106.364 147.2,108.56 142.16,108.56 C138.776,108.56 135.572,107.192 133.844,105.392 L133.016,106.76 C134.852,108.776 138.452,110.18 142.196,110.18 Z M162.86,110 L162.86,86.456 L153.788,86.456 L153.788,84.8 L173.768,84.8 L173.768,86.456 L164.696,86.456 L164.696,110 L162.86,110 Z M196.772,110 L193.532,102.908 L178.916,102.908 L175.712,110 L173.732,110 L185.324,84.8 L187.16,84.8 L198.752,110 L196.772,110 Z M179.636,101.36 L192.848,101.36 L186.224,86.816 L179.636,101.36 Z M207.788,110 L207.788,86.456 L198.716,86.456 L198.716,84.8 L218.696,84.8 L218.696,86.456 L209.624,86.456 L209.624,110 L207.788,110 Z M225.968,108.344 L225.968,98.012 L239.396,98.012 L239.396,96.392 L225.968,96.392 L225.968,86.456 L240.98,86.456 L240.98,84.8 L224.132,84.8 L224.132,110 L241.52,110 L241.52,108.344 L225.968,108.344 Z" id="REAL-ESTATE"></path>
                </g>
            </g>
        </g>
    </g>
</svg>