<?xml version="1.0" encoding="UTF-8"?>
<svg width="26px" height="26px" viewBox="0 0 26 26" version="1.1" xmlns="http://www.w3.org/2000/svg" xmlns:xlink="http://www.w3.org/1999/xlink">
    <!-- Generator: Sketch 47.1 (45422) - http://www.bohemiancoding.com/sketch -->
    <title>x</title>
    <desc>Created with Sketch.</desc>
    <defs></defs>
    <g id="Page-1" stroke="none" stroke-width="1" fill="none" fill-rule="evenodd">
        <g id="x" transform="translate(1.000000, 1.000000)" stroke="#FFFFFF" stroke-width="2" fill="#FFFFFF" fill-rule="nonzero">
            <path d="M13.0605469,12 L23.7802734,1.2802734 C24.0732422,0.9873046 24.0732422,0.5126953 23.7802734,0.2197265 C23.4873046,-0.0732423 23.0126953,-0.0732423 22.7197265,0.2197265 L12,10.9394531 L1.2802734,0.2197266 C0.9873046,-0.0732422 0.5126953,-0.0732422 0.2197265,0.2197266 C-0.0732423,0.5126954 -0.0732423,0.9873047 0.2197265,1.2802735 L10.9394531,12 L0.2197266,22.7197266 C-0.0732422,23.0126954 -0.0732422,23.4873047 0.2197266,23.7802735 C0.3662109,23.9267578 0.5576172,24 0.75,24 C0.9423828,24 1.1337891,23.9267578 1.2802734,23.7802734 L12,13.0605469 L22.7197266,23.7802735 C22.8662109,23.9267578 23.0576172,24 23.25,24 C23.4423828,24 23.6337891,23.9267578 23.7802734,23.7802734 C24.0732422,23.4873046 24.0732422,23.0126953 23.7802734,22.7197265 L13.0605469,12 Z" id="Shape"></path>
        </g>
    </g>
</svg>